<svg width="42" height="40" viewBox="0 0 42 40" fill="none" xmlns="http://www.w3.org/2000/svg">
<rect x="0.41748" width="41.165" height="40" fill="white"/>
<path d="M30.6098 19.7875C29.8533 17.886 28.5399 16.2416 26.8321 15.0576C25.1243 13.8735 23.0968 13.2016 21.0003 13.125C18.9038 13.2016 16.8763 13.8735 15.1685 15.0576C13.4607 16.2416 12.1474 17.886 11.3909 19.7875C11.3398 19.9248 11.3398 20.0752 11.3909 20.2125C12.1474 22.114 13.4607 23.7584 15.1685 24.9424C16.8763 26.1265 18.9038 26.7984 21.0003 26.875C23.0968 26.7984 25.1243 26.1265 26.8321 24.9424C28.5399 23.7584 29.8533 22.114 30.6098 20.2125C30.6609 20.0752 30.6609 19.9248 30.6098 19.7875ZM21.0003 25.625C17.5913 25.625 13.9894 23.1687 12.6837 20C13.9894 16.8312 17.5913 14.375 21.0003 14.375C24.4093 14.375 28.0112 16.8312 29.3169 20C28.0112 23.1687 24.4093 25.625 21.0003 25.625Z" fill="#4F8FF0"/>
<path d="M21.0003 16.25C20.2371 16.25 19.4909 16.4699 18.8563 16.882C18.2216 17.294 17.727 17.8797 17.4349 18.5649C17.1428 19.2502 17.0664 20.0042 17.2153 20.7316C17.3642 21.459 17.7317 22.1272 18.2715 22.6517C18.8112 23.1761 19.4988 23.5333 20.2474 23.6779C20.9961 23.8226 21.772 23.7484 22.4772 23.4645C23.1824 23.1807 23.7851 22.7001 24.2092 22.0834C24.6332 21.4667 24.8596 20.7417 24.8596 20C24.8596 19.0054 24.453 18.0516 23.7292 17.3483C23.0055 16.6451 22.0239 16.25 21.0003 16.25ZM21.0003 22.5C20.4915 22.5 19.9941 22.3534 19.571 22.0787C19.1479 21.804 18.8181 21.4135 18.6234 20.9567C18.4286 20.4999 18.3777 19.9972 18.477 19.5123C18.5762 19.0273 18.8213 18.5819 19.1811 18.2322C19.5409 17.8826 19.9993 17.6445 20.4984 17.548C20.9975 17.4516 21.5148 17.5011 21.9849 17.6903C22.455 17.8795 22.8569 18.2 23.1396 18.6111C23.4223 19.0222 23.5732 19.5055 23.5732 20C23.5732 20.663 23.3021 21.2989 22.8196 21.7678C22.3371 22.2366 21.6827 22.5 21.0003 22.5Z" fill="#4F8FF0"/>
</svg>
