<svg width="0" height="0" class="hidden">
  <symbol xmlns="http://www.w3.org/2000/svg" viewBox="0 0 20 20" id="phone">
    <path d="M13.3332 0.833252H6.6665C5.28317 0.833252 4.1665 1.94992 4.1665 3.33325V16.6666C4.1665 18.0499 5.28317 19.1666 6.6665 19.1666H13.3332C14.7165 19.1666 15.8332 18.0499 15.8332 16.6666V3.33325C15.8332 1.94992 14.7165 0.833252 13.3332 0.833252ZM14.1665 14.9999H5.83317V3.33325H14.1665V14.9999ZM11.6665 17.4999H8.33317V16.6666H11.6665V17.4999Z"></path>
  </symbol>
  <symbol xmlns="http://www.w3.org/2000/svg" viewBox="0 0 20 20" id="mail">
    <path d="M3.33317 16.6666C2.87484 16.6666 2.48234 16.5033 2.15567 16.1766C1.82901 15.8499 1.66595 15.4577 1.66651 14.9999V4.99992C1.66651 4.54159 1.82984 4.14909 2.15651 3.82242C2.48317 3.49575 2.87539 3.3327 3.33317 3.33325H16.6665C17.1248 3.33325 17.5173 3.49659 17.844 3.82325C18.1707 4.14992 18.3337 4.54214 18.3332 4.99992V14.9999C18.3332 15.4583 18.1698 15.8508 17.8432 16.1774C17.5165 16.5041 17.1243 16.6671 16.6665 16.6666H3.33317ZM9.99984 10.8333L3.33317 6.66659V14.9999H16.6665V6.66659L9.99984 10.8333ZM9.99984 9.16659L16.6665 4.99992H3.33317L9.99984 9.16659ZM3.33317 6.66659V4.99992V14.9999V6.66659Z"></path>
  </symbol>
  
  <symbol xmlns="http://www.w3.org/2000/svg" viewBox="0 0 21 20" id="arrowleft">
    <path d="M14.3055 18.3333L5.97217 9.99996L14.3055 1.66663L15.7847 3.14579L8.9305 9.99996L15.7847 16.8541L14.3055 18.3333Z"></path>
  </symbol>
  <symbol xmlns="http://www.w3.org/2000/svg" viewBox="0 0 20 20" id="arrowright">
    <path d="M6.68742 18.3333L5.20825 16.8541L12.0624 9.99996L5.20825 3.14579L6.68742 1.66663L15.0208 9.99996L6.68742 18.3333Z"></path>
  </symbol>
  
  <symbol xmlns="http://www.w3.org/2000/svg" viewBox="0 0 36 35" id="agreement">
    <path d="M29.6665 5.83329V23.3333H12.1665V5.83329H29.6665ZM29.6665 2.91663H12.1665C10.5623 2.91663 9.24984 4.22913 9.24984 5.83329V23.3333C9.24984 24.9375 10.5623 26.25 12.1665 26.25H29.6665C31.2707 26.25 32.5832 24.9375 32.5832 23.3333V5.83329C32.5832 4.22913 31.2707 2.91663 29.6665 2.91663ZM18.6853 20.4166L13.6248 15.3125L15.6665 13.2562L18.6853 16.2895L26.1665 8.74996L28.2082 10.8062L18.6853 20.4166ZM6.33317 8.74996H3.4165V29.1666C3.4165 30.7708 4.729 32.0833 6.33317 32.0833H26.7498V29.1666H6.33317V8.74996Z"></path>
  </symbol>
  <symbol xmlns="http://www.w3.org/2000/svg" viewBox="0 0 35 35" id="business">
    <path d="M17.4998 10.2083V7.29167C17.4998 5.6875 16.1873 4.375 14.5832 4.375H5.83317C4.229 4.375 2.9165 5.6875 2.9165 7.29167V27.7083C2.9165 29.3125 4.229 30.625 5.83317 30.625H29.1665C30.7707 30.625 32.0832 29.3125 32.0832 27.7083V13.125C32.0832 11.5208 30.7707 10.2083 29.1665 10.2083H17.4998ZM8.74984 27.7083H5.83317V24.7917H8.74984V27.7083ZM8.74984 21.875H5.83317V18.9583H8.74984V21.875ZM8.74984 16.0417H5.83317V13.125H8.74984V16.0417ZM8.74984 10.2083H5.83317V7.29167H8.74984V10.2083ZM14.5832 27.7083H11.6665V24.7917H14.5832V27.7083ZM14.5832 21.875H11.6665V18.9583H14.5832V21.875ZM14.5832 16.0417H11.6665V13.125H14.5832V16.0417ZM14.5832 10.2083H11.6665V7.29167H14.5832V10.2083ZM27.7082 27.7083H17.4998V24.7917H20.4165V21.875H17.4998V18.9583H20.4165V16.0417H17.4998V13.125H27.7082C28.5103 13.125 29.1665 13.7812 29.1665 14.5833V26.25C29.1665 27.0521 28.5103 27.7083 27.7082 27.7083ZM26.2498 16.0417H23.3332V18.9583H26.2498V16.0417ZM26.2498 21.875H23.3332V24.7917H26.2498V21.875Z"></path>
  </symbol>
  <symbol xmlns="http://www.w3.org/2000/svg" viewBox="0 0 35 35" id="home">
    <path d="M27.7083 4.375H7.29167C5.6875 4.375 4.375 5.6875 4.375 7.29167V27.7083C4.375 29.3125 5.6875 30.625 7.29167 30.625H27.7083C29.3125 30.625 30.625 29.3125 30.625 27.7083V7.29167C30.625 5.6875 29.3125 4.375 27.7083 4.375ZM7.29167 27.7083V7.29167H16.0417V27.7083H7.29167ZM27.7083 27.7083H18.9583V17.5H27.7083V27.7083ZM27.7083 14.5833H18.9583V7.29167H27.7083V14.5833Z"></path>
  </symbol>
  <symbol xmlns="http://www.w3.org/2000/svg" viewBox="0 0 35 35" id="profile">
    <path d="M5.83317 8.75008H2.9165V29.1667C2.9165 30.7709 4.229 32.0834 5.83317 32.0834H26.2498V29.1667H5.83317V8.75008ZM20.4165 16.0417C22.8373 16.0417 24.7915 14.0876 24.7915 11.6667C24.7915 9.24591 22.8373 7.29175 20.4165 7.29175C17.9957 7.29175 16.0415 9.24591 16.0415 11.6667C16.0415 14.0876 17.9957 16.0417 20.4165 16.0417ZM20.4165 10.2084C21.2186 10.2084 21.8748 10.8647 21.8748 11.6667C21.8748 12.4688 21.2186 13.1251 20.4165 13.1251C19.6144 13.1251 18.9582 12.4688 18.9582 11.6667C18.9582 10.8647 19.6144 10.2084 20.4165 10.2084ZM29.1665 2.91675H11.6665C10.0623 2.91675 8.74984 4.22925 8.74984 5.83341V23.3334C8.74984 24.9376 10.0623 26.2501 11.6665 26.2501H29.1665C30.7707 26.2501 32.0832 24.9376 32.0832 23.3334V5.83341C32.0832 4.22925 30.7707 2.91675 29.1665 2.91675ZM15.5894 23.3334C16.9748 22.4147 18.6373 21.8751 20.4165 21.8751C22.1957 21.8751 23.8582 22.4147 25.2436 23.3334H15.5894ZM29.1665 22.9397C27.0228 20.5042 23.9165 18.9584 20.4165 18.9584C16.9165 18.9584 13.8103 20.5042 11.6665 22.9397V5.83341H29.1665V22.9397Z"></path>
  </symbol>
  <symbol xmlns="http://www.w3.org/2000/svg" viewBox="0 0 35 35" id="projects">
    <path d="M4.37516 13.8542H1.4585V29.8958C1.4585 31.5146 2.75641 32.8125 4.37516 32.8125H29.1668V29.8958H4.37516V13.8542Z"></path>
    <path d="M26.2502 8.02083V5.10417C26.2502 3.5 24.9377 2.1875 23.3335 2.1875H17.5002C15.896 2.1875 14.5835 3.5 14.5835 5.10417V8.02083H7.29183V24.0625C7.29183 25.6667 8.60433 26.9792 10.2085 26.9792H30.6252C32.2293 26.9792 33.5418 25.6667 33.5418 24.0625V8.02083H26.2502ZM17.5002 5.10417H23.3335V8.02083H17.5002V5.10417ZM30.6252 24.0625H10.2085V10.9375H30.6252V24.0625Z"></path>
  </symbol>
  <symbol xmlns="http://www.w3.org/2000/svg" viewBox="0 0 35 35" id="request">
    <path d="M26.9793 33.5416H6.56266C4.9585 33.5416 3.646 32.2291 3.646 30.6249V10.2083H6.56266V30.6249H26.9793V33.5416ZM21.8752 10.2083V7.29158H18.9585V10.2083H16.0418V13.1249H18.9585V16.0416H21.8752V13.1249H24.7918V10.2083H21.8752ZM24.7918 18.9583H16.0418V21.8749H24.7918V18.9583ZM22.6043 1.45825H12.396C10.7918 1.45825 9.49391 2.77075 9.49391 4.37492L9.47933 24.7916C9.47933 26.3958 10.7772 27.7083 12.3814 27.7083H28.4377C30.0418 27.7083 31.3543 26.3958 31.3543 24.7916V10.2083L22.6043 1.45825ZM28.4377 24.7916H12.396V4.37492H21.3939L28.4377 11.4187V24.7916Z"></path>
  </symbol>
  
  <symbol xmlns="http://www.w3.org/2000/svg" viewBox="0 0 35 35" id="bottom-right">
    <mask id="path-1-inside-1_14466_38" fill="white">
      <path d="M0 0H35V35H0V0Z"></path>
    </mask>
    <path d="M35 35V36H36V35H35ZM34 0V35H36V0H34ZM35 34H0V36H35V34Z" mask="url(#path-1-inside-1_14466_38)"></path>
  </symbol>
  <symbol xmlns="http://www.w3.org/2000/svg" viewBox="0 0 35 35" id="bottom-left">
    <mask id="path-1-inside-1_14466_37" fill="white">
      <path d="M0 0H35V35H0V0Z"></path>
    </mask>
    <path d="M0 35H-1V36H0V35ZM35 34H0V36H35V34ZM1 35V0H-1V35H1Z" mask="url(#path-1-inside-1_14466_37)"></path>
  </symbol>
  <symbol xmlns="http://www.w3.org/2000/svg" viewBox="0 0 35 35" id="right-top">
    <mask id="path-1-inside-1_14466_36" fill="white">
      <path d="M0 0H35V35H0V0Z"></path>
    </mask>
    <path d="M35 0H36V-1H35V0ZM0 1H35V-1H0V1ZM34 0V35H36V0H34Z" mask="url(#path-1-inside-1_14466_36)"></path>
  </symbol>
  <symbol xmlns="http://www.w3.org/2000/svg" viewBox="0 0 35 35" id="left-top">
    <mask id="path-1-inside-1_14466_35" fill="white">
      <path d="M0 0H35V35H0V0Z"></path>
    </mask>
    <path d="M0 0V-1H-1V0H0ZM0 1H35V-1H0V1ZM1 35V0H-1V35H1Z" mask="url(#path-1-inside-1_14466_35)"></path>
  </symbol>
  
  <symbol xmlns="http://www.w3.org/2000/svg" viewBox="0 0 32 32" id="map">
    <path d="M15.9998 8.66675C16.8839 8.66675 17.7317 9.01794 18.3569 9.64306C18.982 10.2682 19.3332 11.116 19.3332 12.0001C19.3332 12.4378 19.247 12.8713 19.0794 13.2757C18.9119 13.6801 18.6664 14.0476 18.3569 14.3571C18.0473 14.6666 17.6799 14.9122 17.2754 15.0797C16.871 15.2472 16.4376 15.3334 15.9998 15.3334C15.1158 15.3334 14.2679 14.9822 13.6428 14.3571C13.0177 13.732 12.6665 12.8841 12.6665 12.0001C12.6665 11.116 13.0177 10.2682 13.6428 9.64306C14.2679 9.01794 15.1158 8.66675 15.9998 8.66675ZM15.9998 2.66675C18.4752 2.66675 20.8492 3.65008 22.5995 5.40042C24.3498 7.15076 25.3332 9.52473 25.3332 12.0001C25.3332 19.0001 15.9998 29.3334 15.9998 29.3334C15.9998 29.3334 6.6665 19.0001 6.6665 12.0001C6.6665 9.52473 7.64983 7.15076 9.40017 5.40042C11.1505 3.65008 13.5245 2.66675 15.9998 2.66675ZM15.9998 5.33341C14.2317 5.33341 12.536 6.03579 11.2858 7.28604C10.0355 8.53628 9.33317 10.232 9.33317 12.0001C9.33317 13.3334 9.33317 16.0001 15.9998 24.9467C22.6665 16.0001 22.6665 13.3334 22.6665 12.0001C22.6665 10.232 21.9641 8.53628 20.7139 7.28604C19.4636 6.03579 17.7679 5.33341 15.9998 5.33341Z"></path>
  </symbol>
  <symbol xmlns="http://www.w3.org/2000/svg" viewBox="0 0 32 32" id="phone">
    <path d="M21.3332 1.33325H10.6665C8.45317 1.33325 6.6665 3.11992 6.6665 5.33325V26.6666C6.6665 28.8799 8.45317 30.6666 10.6665 30.6666H21.3332C23.5465 30.6666 25.3332 28.8799 25.3332 26.6666V5.33325C25.3332 3.11992 23.5465 1.33325 21.3332 1.33325ZM22.6665 23.9999H9.33317V5.33325H22.6665V23.9999ZM18.6665 27.9999H13.3332V26.6666H18.6665V27.9999Z"></path>
  </symbol>
  <symbol xmlns="http://www.w3.org/2000/svg" viewBox="0 0 32 32" id="mail">
    <path d="M5.33317 26.6666C4.59984 26.6666 3.97184 26.4053 3.44917 25.8826C2.92651 25.3599 2.66562 24.7324 2.66651 23.9999V7.99992C2.66651 7.26659 2.92784 6.63859 3.45051 6.11592C3.97317 5.59325 4.60073 5.33237 5.33317 5.33325H26.6665C27.3998 5.33325 28.0278 5.59459 28.5505 6.11725C29.0732 6.63992 29.3341 7.26748 29.3332 7.99992V23.9999C29.3332 24.7333 29.0718 25.3613 28.5492 25.8839C28.0265 26.4066 27.399 26.6675 26.6665 26.6666H5.33317ZM15.9998 17.3333L5.33317 10.6666V23.9999H26.6665V10.6666L15.9998 17.3333ZM15.9998 14.6666L26.6665 7.99992H5.33317L15.9998 14.6666ZM5.33317 10.6666V7.99992V23.9999V10.6666Z"></path>
  </symbol>
  
  <symbol xmlns="http://www.w3.org/2000/svg" viewBox="0 0 16 16" id="arrow-up-circle-fill">
    <path d="M16 8A8 8 0 1 0 0 8a8 8 0 0 0 16 0m-7.5 3.5a.5.5 0 0 1-1 0V5.707L5.354 7.854a.5.5 0 1 1-.708-.708l3-3a.5.5 0 0 1 .708 0l3 3a.5.5 0 0 1-.708.708L8.5 5.707z"></path>
  </symbol>
</svg>

