<?xml version="1.0" standalone="no"?>
<!DOCTYPE svg PUBLIC "-//W3C//DTD SVG 20010904//EN"
 "http://www.w3.org/TR/2001/REC-SVG-20010904/DTD/svg10.dtd">
<svg version="1.0" xmlns="http://www.w3.org/2000/svg"
 width="824.000000pt" height="824.000000pt" viewBox="0 0 824.000000 824.000000"
 preserveAspectRatio="xMidYMid meet">
<metadata>
Created by potrace 1.14, written by Peter Selinger 2001-2017
</metadata>
<g transform="translate(0.000000,824.000000) scale(0.100000,-0.100000)"
fill="#000000" stroke="none">
<path d="M4075 8187 c-22 -12 -56 -32 -75 -43 -70 -43 -359 -194 -380 -200 -3
0 -32 -13 -65 -28 -138 -64 -166 -76 -170 -76 -2 0 -28 -11 -57 -24 -125 -56
-648 -237 -760 -262 -31 -7 -51 -12 -128 -34 -41 -12 -82 -23 -90 -25 -8 -2
-55 -13 -105 -25 -108 -25 -346 -76 -395 -84 -19 -3 -60 -10 -90 -16 -58 -11
-60 -11 -180 -30 -41 -6 -86 -14 -100 -16 -14 -2 -45 -7 -70 -9 -25 -3 -56 -8
-70 -10 -14 -3 -52 -8 -85 -11 -87 -9 -119 -12 -125 -15 -3 -1 -9 -1 -14 0
-18 4 -44 -11 -49 -27 -3 -9 -17 -48 -32 -87 -29 -77 -86 -234 -90 -250 -1 -5
-4 -17 -7 -25 -24 -66 -51 -152 -77 -245 -17 -60 -36 -126 -41 -145 -13 -48
-48 -189 -54 -220 -2 -14 -11 -59 -20 -100 -23 -108 -36 -171 -40 -205 -3 -16
-5 -30 -6 -30 -1 0 -3 -11 -5 -25 -3 -25 -32 -225 -41 -285 -2 -16 -6 -61 -9
-100 -2 -38 -5 -70 -6 -70 0 0 -2 -11 -4 -25 -27 -242 -27 -920 1 -1210 1 -19
5 -62 8 -95 5 -59 7 -78 26 -225 17 -131 53 -344 76 -445 9 -38 18 -81 20 -95
3 -14 14 -59 25 -100 11 -41 22 -84 23 -95 2 -11 6 -27 9 -35 3 -8 13 -42 22
-75 9 -33 19 -67 22 -75 4 -8 7 -17 8 -20 1 -4 30 -99 40 -130 1 -3 4 -12 8
-20 12 -32 42 -115 43 -120 0 -3 6 -18 12 -33 7 -16 12 -30 12 -33 0 -2 10
-26 21 -52 12 -26 27 -60 34 -77 83 -195 212 -442 326 -625 48 -76 182 -268
207 -296 9 -10 36 -44 59 -74 23 -30 54 -69 70 -87 15 -17 53 -60 83 -94 58
-66 234 -243 292 -294 18 -16 60 -52 92 -80 32 -27 72 -62 90 -77 17 -16 36
-28 43 -28 7 0 13 -4 13 -8 0 -5 21 -24 48 -42 26 -19 49 -38 50 -42 2 -4 10
-8 17 -8 7 0 15 -4 17 -8 6 -16 297 -204 373 -242 17 -8 53 -29 82 -47 29 -18
55 -33 58 -33 4 0 61 -27 128 -59 161 -78 487 -208 568 -226 18 -4 148 -40
194 -54 28 -9 56 -15 115 -26 14 -3 36 -8 50 -11 43 -11 150 -13 183 -3 18 6
39 12 47 14 55 12 76 18 85 23 5 4 16 7 25 8 8 1 53 14 100 30 47 15 87 28 90
29 3 1 14 5 25 9 11 5 63 24 115 43 97 36 136 53 248 104 35 16 65 29 68 29 2
0 22 11 44 25 22 14 40 23 40 21 0 -3 28 10 63 29 34 19 80 44 102 55 22 11
58 31 80 44 82 51 128 76 136 76 5 0 9 4 9 9 0 5 14 14 30 21 17 7 30 16 30
21 0 5 4 9 10 9 10 0 92 55 124 83 11 9 25 17 32 17 7 0 14 3 16 8 2 4 55 46
118 94 63 48 132 103 154 122 21 20 40 36 42 36 7 0 106 92 220 205 144 143
232 239 329 360 22 28 43 52 48 53 4 2 7 10 7 17 0 7 4 15 8 17 7 3 78 95 115
148 57 85 127 191 127 195 0 2 13 23 29 47 60 90 157 272 234 438 54 117 77
169 77 174 0 2 8 21 17 42 9 22 18 42 19 47 1 4 2 8 3 10 2 1 4 13 7 26 2 14
8 29 13 35 14 18 125 354 136 413 2 10 4 19 5 21 2 1 3 5 4 10 1 4 15 59 30
122 27 112 31 129 41 180 3 14 7 36 10 50 3 14 8 36 10 50 2 14 8 48 14 75 5
28 12 75 16 105 4 30 8 57 10 60 1 3 6 37 9 75 4 39 9 77 11 85 2 8 7 44 10
80 2 36 7 74 9 86 2 12 7 81 11 155 4 74 9 157 11 184 4 68 4 504 -1 587 -8
153 -16 275 -20 313 -3 22 -7 63 -10 90 -3 28 -7 66 -10 85 -2 19 -7 58 -10
85 -3 28 -7 57 -10 65 -2 8 -6 35 -9 60 -3 25 -8 56 -11 70 -3 14 -8 41 -11
60 -2 19 -9 55 -15 80 -5 25 -11 59 -14 75 -2 17 -6 39 -9 50 -3 11 -12 52
-20 90 -27 121 -116 452 -133 495 -3 8 -7 17 -7 20 -2 11 -29 96 -36 115 -4
11 -13 36 -20 55 -7 19 -16 44 -20 55 -5 11 -18 48 -30 82 -47 139 -67 177
-91 179 -13 1 -40 4 -59 7 -19 4 -62 9 -95 12 -59 6 -103 12 -156 21 -15 2
-47 6 -70 9 -46 6 -66 9 -159 25 -30 5 -71 12 -90 15 -19 3 -57 10 -85 15 -27
6 -59 12 -70 14 -83 15 -111 20 -117 18 -5 -1 -8 1 -8 5 0 5 -10 8 -22 9 -13
0 -35 4 -50 7 -16 4 -40 10 -55 13 -53 10 -238 55 -253 61 -8 3 -22 7 -30 8
-8 1 -58 14 -110 29 -315 90 -664 211 -855 296 -205 91 -308 139 -345 159 -25
14 -51 26 -58 27 -7 2 -19 8 -27 14 -8 7 -38 25 -67 40 -55 29 -101 55 -183
103 -26 15 -50 27 -54 27 -3 -1 -24 -11 -46 -23z m96 -1539 c32 -34 59 -67 59
-75 0 -7 4 -13 8 -13 10 0 82 -142 87 -168 3 -22 25 -21 145 7 52 13 106 24
120 26 104 15 173 19 290 19 160 0 241 -9 355 -40 33 -8 71 -18 85 -20 14 -3
48 -13 75 -24 112 -42 189 -73 204 -80 26 -13 163 -72 216 -92 28 -11 75 -21
105 -24 46 -4 63 0 105 22 28 14 67 35 87 46 23 12 56 20 85 19 63 -1 71 -2
213 -46 31 -9 100 -46 106 -57 12 -18 13 -30 17 -132 4 -103 -6 -174 -35 -230
-19 -38 -54 -75 -71 -76 -4 0 -13 -5 -20 -10 -50 -43 -161 -95 -257 -123 -149
-43 -295 -40 -470 10 -54 15 -244 88 -265 101 -5 4 -12 7 -15 7 -3 1 -21 8
-40 17 -19 8 -51 22 -70 31 -40 17 -163 56 -200 63 -14 3 -43 9 -65 14 -43 10
-311 6 -360 -5 -160 -35 -365 -106 -365 -125 0 -5 7 -42 15 -82 9 -40 17 -84
19 -98 4 -24 21 -125 31 -180 11 -63 35 -209 40 -250 6 -47 12 -81 19 -116 2
-11 7 -45 10 -75 3 -30 8 -63 10 -75 2 -12 7 -45 11 -75 3 -30 8 -65 10 -79 2
-14 6 -47 10 -75 3 -27 8 -61 10 -75 3 -24 7 -56 21 -195 12 -114 18 -185 28
-315 14 -181 17 -244 21 -383 2 -82 6 -151 9 -154 3 -3 1 -14 -5 -24 -5 -11
-6 -19 -2 -19 4 0 7 -24 6 -52 -1 -29 -4 -123 -7 -208 -3 -85 -7 -173 -10
-195 -2 -22 -7 -67 -11 -100 -5 -52 -19 -150 -25 -180 -5 -24 2 -42 26 -70 66
-75 116 -173 143 -280 l10 -40 208 2 c188 2 212 0 249 -17 68 -33 103 -100 98
-188 -2 -37 0 -42 19 -43 12 0 123 -1 247 -2 225 -2 225 -2 280 -30 117 -60
146 -128 145 -343 l0 -149 -1125 -1 c-619 0 -1131 -3 -1138 -8 -6 -4 -12 -4
-12 1 0 4 -307 8 -682 8 l-683 0 0 155 c1 177 12 225 69 282 80 79 90 82 321
88 l200 5 1 40 c1 70 13 110 44 143 51 56 72 60 314 61 231 0 236 1 236 47 0
59 85 214 156 286 31 33 35 43 30 70 -3 18 -8 56 -12 83 -3 28 -8 66 -10 85
-13 100 -18 244 -18 515 0 309 8 526 29 715 2 25 7 74 10 110 3 36 8 83 10
105 3 22 7 63 9 90 3 28 8 68 11 90 3 22 7 60 10 85 3 25 8 62 10 83 3 20 7
54 10 75 5 40 15 114 20 149 3 23 15 95 20 123 2 8 6 38 9 65 4 28 9 57 11 65
2 8 6 35 9 60 4 25 9 59 11 75 3 17 12 66 20 110 8 44 17 94 20 110 3 17 8 46
11 65 3 19 7 42 9 50 17 63 15 78 -13 88 -74 30 -215 72 -284 86 -128 26 -149
29 -253 29 -122 0 -161 -6 -302 -45 -46 -12 -83 -26 -83 -30 0 -5 -7 -8 -16
-8 -8 0 -41 -12 -72 -27 -31 -15 -59 -27 -62 -28 -3 -1 -48 -22 -100 -47 -92
-44 -227 -91 -300 -102 -19 -4 -53 -9 -75 -13 -142 -24 -314 6 -470 82 -178
88 -217 151 -218 355 0 68 4 124 11 136 12 22 83 60 168 89 73 25 83 27 149
28 53 0 69 -5 139 -43 64 -35 88 -43 128 -43 26 1 56 7 65 14 9 8 19 13 22 12
11 -5 67 17 137 52 38 19 75 35 82 35 6 0 12 4 12 10 0 5 3 9 8 8 4 -1 17 3
30 10 12 7 22 10 22 8 0 -3 15 2 33 12 17 10 55 26 82 36 28 10 59 22 70 27
34 15 184 54 250 65 17 2 50 8 75 12 59 9 349 9 420 -1 107 -15 127 -19 246
-47 102 -25 104 -25 104 3 0 13 5 28 12 35 7 7 9 12 5 12 -10 0 38 94 74 145
36 52 125 145 140 145 6 0 37 -28 70 -62z m1811 -1443 c9 -22 27 -65 41 -95
13 -30 59 -138 102 -240 42 -102 86 -205 97 -229 11 -24 28 -66 39 -94 11 -28
29 -70 40 -93 10 -24 19 -45 19 -49 0 -3 8 -24 19 -48 26 -59 76 -181 76 -187
0 -3 6 -15 13 -27 7 -13 10 -23 7 -23 -3 0 4 -19 16 -42 12 -24 22 -45 22 -48
0 -3 4 -16 9 -30 5 -14 15 -41 22 -60 7 -19 34 -91 60 -160 56 -150 58 -154
56 -158 0 -1 7 -16 15 -32 8 -16 15 -31 14 -32 -3 -4 19 -76 31 -103 7 -17 22
-76 21 -82 0 -2 6 -20 14 -42 42 -120 40 -255 -7 -344 -12 -23 -21 -46 -20
-50 1 -4 -37 -47 -86 -95 -73 -72 -104 -95 -182 -133 -52 -26 -113 -52 -135
-59 -22 -7 -47 -15 -55 -18 -24 -8 -57 -15 -150 -30 -67 -10 -296 -6 -365 7
-144 28 -339 111 -402 170 -12 12 -27 21 -33 21 -5 0 -10 3 -10 8 0 4 -18 26
-40 48 -46 49 -90 122 -110 184 -19 58 -17 181 3 248 9 29 16 55 16 57 -1 20
128 398 178 525 4 8 7 17 8 20 1 3 5 14 10 25 4 11 34 88 66 170 68 176 194
488 215 529 8 16 14 32 14 36 0 4 12 34 27 66 14 33 27 64 29 69 1 6 23 56 47
113 25 56 43 102 40 102 -3 0 1 8 10 18 9 10 18 27 20 38 1 10 17 49 35 87 18
37 32 69 32 71 0 2 12 30 26 62 l26 59 22 -45 c12 -25 29 -63 38 -85z m-3654
109 c-5 -5 37 -109 103 -251 10 -24 19 -45 19 -48 0 -3 9 -25 20 -50 11 -25
29 -65 40 -90 11 -25 20 -47 20 -50 0 -2 11 -29 25 -58 13 -30 40 -93 59 -140
19 -47 41 -101 49 -119 8 -18 47 -114 87 -213 39 -99 78 -194 86 -212 8 -17
14 -37 14 -45 0 -8 4 -18 8 -23 5 -6 33 -75 62 -155 29 -80 58 -158 65 -175
14 -33 93 -270 100 -301 3 -10 12 -44 21 -74 68 -234 12 -395 -192 -556 -41
-33 -197 -112 -233 -119 -12 -2 -25 -6 -29 -9 -8 -5 -19 -8 -102 -25 -190 -41
-385 -30 -595 33 -144 43 -310 161 -384 272 -67 102 -93 242 -62 337 6 19 14
44 16 56 10 53 104 342 116 357 5 6 6 14 2 17 -3 4 -1 13 6 20 6 8 18 39 27
68 9 30 19 59 24 64 4 6 13 28 20 50 7 22 15 45 19 50 3 6 6 15 7 20 3 21 293
733 350 860 9 22 19 45 20 50 1 6 22 56 47 112 25 56 43 104 39 107 -3 3 0 6
6 6 7 0 12 5 12 11 0 13 70 177 88 207 8 12 17 22 20 22 3 0 3 -3 0 -6z"/>
<path d="M4021 6200 c-78 -36 -120 -104 -117 -190 4 -89 36 -139 114 -179 130
-66 290 36 290 184 0 115 -94 206 -215 205 -15 0 -48 -9 -72 -20z"/>
<path d="M5912 4697 c-6 -12 -34 -80 -62 -152 -29 -71 -56 -139 -61 -150 -12
-29 -86 -216 -121 -310 -17 -44 -39 -102 -50 -130 -11 -27 -41 -111 -68 -185
-116 -321 -132 -386 -104 -427 21 -33 76 -54 149 -58 33 -2 65 -4 70 -5 6 -1
12 -1 15 0 3 1 124 3 270 4 220 3 295 7 360 21 80 17 109 67 88 150 -6 27 -13
52 -13 55 -1 8 -26 83 -32 100 -8 20 -8 21 -18 55 -4 17 -12 35 -16 41 -5 6
-10 19 -12 30 -2 10 -7 26 -10 34 -47 124 -87 238 -87 248 0 7 -4 12 -10 12
-5 0 -10 6 -10 14 0 11 -116 314 -163 426 -5 14 -11 30 -12 35 -2 6 -12 30
-23 55 -11 25 -30 70 -42 100 -12 30 -23 56 -24 57 -2 2 -8 -7 -14 -20z"/>
<path d="M2305 4678 c-3 -13 -10 -32 -15 -43 -14 -30 -119 -292 -145 -360 -13
-33 -42 -107 -65 -165 -23 -58 -43 -109 -44 -115 -2 -5 -6 -17 -9 -25 -60
-141 -187 -523 -194 -580 -4 -35 0 -51 16 -71 37 -48 86 -54 426 -52 315 2
371 5 438 25 52 16 93 58 88 91 -1 4 -4 24 -7 44 -3 19 -24 92 -47 162 -22 69
-41 128 -42 131 -2 6 -14 39 -25 65 -4 11 -20 54 -35 95 -15 41 -38 102 -51
135 -12 33 -39 103 -59 155 -51 134 -105 270 -120 305 -7 17 -21 54 -31 83
-10 28 -22 52 -26 52 -5 0 -8 8 -8 18 0 22 -22 72 -32 72 -4 0 -9 -10 -13 -22z"/>
</g>
</svg>
