<?xml version="1.0" encoding="utf-8"?><svg viewBox="0 0 372 210" xmlns="http://www.w3.org/2000/svg" xmlns:xlink="http://www.w3.org/1999/xlink"><style>:root>svg{display:none}:root>svg:target{display:block}</style><svg viewBox="0 0 42 40" id="eye" xmlns="http://www.w3.org/2000/svg"><path d="M.417 0h41.165v40H.417z"/><path d="M30.61 19.788a10.478 10.478 0 00-3.778-4.73A10.941 10.941 0 0021 13.125a10.941 10.941 0 00-5.832 1.933 10.478 10.478 0 00-3.777 4.73.608.608 0 000 .424 10.478 10.478 0 003.777 4.73A10.941 10.941 0 0021 26.875a10.941 10.941 0 005.832-1.933 10.478 10.478 0 003.778-4.73.608.608 0 000-.424zM21 25.625c-3.409 0-7.01-2.456-8.316-5.625 1.305-3.169 4.907-5.625 8.316-5.625 3.41 0 7.011 2.456 8.317 5.625-1.306 3.169-4.908 5.625-8.317 5.625z"/><path d="M21 16.25c-.763 0-1.51.22-2.144.632a3.775 3.775 0 00-1.421 1.683 3.652 3.652 0 00-.22 2.167 3.718 3.718 0 001.056 1.92c.54.524 1.228.881 1.976 1.026.75.145 1.525.07 2.23-.213a3.837 3.837 0 001.732-1.382c.424-.616.65-1.341.65-2.083 0-.995-.406-1.948-1.13-2.652A3.917 3.917 0 0021 16.25zm0 6.25a2.626 2.626 0 01-1.429-.421 2.517 2.517 0 01-.948-1.122 2.433 2.433 0 01-.146-1.445c.1-.485.344-.93.704-1.28s.818-.587 1.317-.684a2.643 2.643 0 011.487.142c.47.19.872.51 1.155.921.282.411.433.895.433 1.389 0 .663-.27 1.299-.753 1.768A2.612 2.612 0 0121 22.5z"/></svg><svg viewBox="0 0 372 210" id="hover-border" xmlns="http://www.w3.org/2000/svg"><mask id="ba"><path d="M0 0h35v35H0V0z"/></mask><path d="M0 0v-1h-1v1h1zm0 1h35v-2H0v2zm1 34V0h-2v35h2z" mask="url(#ba)"/><mask id="bb"><path d="M337 0h35v35h-35V0z"/></mask><path d="M372 0h1v-1h-1v1zm-35 1h35v-2h-35v2zm34-1v35h2V0h-2z" mask="url(#bb)"/><mask id="bc"><path d="M0 175h35v35H0v-35z"/></mask><path d="M0 210h-1v1h1v-1zm35-1H0v2h35v-2zm-34 1v-35h-2v35h2z" mask="url(#bc)"/><mask id="bd"><path d="M337 175h35v35h-35v-35z"/></mask><path d="M372 210v1h1v-1h-1zm-1-35v35h2v-35h-2zm1 34h-35v2h35v-2z" mask="url(#bd)"/></svg><svg viewBox="0 0 55 56" id="icon-pen" xmlns="http://www.w3.org/2000/svg"><path d="M50.563 2.648l-11.01 3.203 4.458-3.018c-2.815.636-6.37 1.88-10.84 3.888l-7.293 7.604 2.589-5.312c-2.503 1.392-5.157 3.217-7.713 5.355l-1.698 6.907-.365-5.113c-2.524 2.32-4.898 4.899-6.864 7.616-2.066 2.847-3.68 5.855-4.49 8.852l-3.02-2.02a14.592 14.592 0 002.48 6.79l-3.611-1.107c.82 2.524 2.162 4.157 4.431 5.479-1.27 3.577-1.867 7.315-2.507 11.043l1.977.333c2.292-22.85 18.469-37.416 33.089-43.87l.74 1.867C27.845 17 17.683 26.883 12.365 41.127c1.944.01 3.846-.226 5.608-.677l.526-6.542 1.407 5.962a16.996 16.996 0 003.201-1.547l-2.223-4.673 3.523 3.739c.86-.688 1.569-1.461 2.106-2.31 3.265-5.102 6.681-10.173 13.406-14.416l-4.91-1.74 7.531.225c1.225-.623 2.514-1.385 3.491-2.105l-5.339-.43 8.025-1.89a24.013 24.013 0 001.73-1.934c1.858-2.357 3.114-4.81 2.814-7.041a3.649 3.649 0 00-1.891-2.754 5.84 5.84 0 00-.806-.346z" opacity=".1"/></svg><svg class="dhidden" viewBox="0 0 0 0" id="sprite"/></svg>